P3
# Created by ImageCompressor
8 8
255
254 0 0   254 0 0   254 0 0   254 0 0   0 0 0   0 0 0   0 0 0   0 0 0   
254 0 0   254 0 0   254 0 0   254 0 0   0 0 0   0 0 0   0 0 0   0 0 0   
254 0 0   254 0 0   254 0 0   254 0 0   0 0 0   0 0 0   0 0 0   0 0 0   
254 0 0   254 0 0   254 0 0   254 0 0   0 0 0   0 0 0   0 0 0   0 0 0   
254 0 0   254 0 0   254 0 0   254 0 0   0 0 0   0 0 0   0 0 0   0 0 0   
254 0 0   254 0 0   254 0 0   254 0 0   0 0 0   0 0 0   0 0 0   0 0 0   
254 0 0   254 0 0   254 0 0   254 0 0   0 0 0   0 0 0   0 0 0   0 0 0   
254 0 0   254 0 0   254 0 0   254 0 0   0 0 0   0 0 0   0 0 0   0 0 0   
